<svg width="179" height="52" viewBox="0 0 179 52" fill="none" xmlns="http://www.w3.org/2000/svg">
<mask id="mask0_326_2" style="mask-type:alpha" maskUnits="userSpaceOnUse" x="0" y="0" width="179" height="52">
<rect width="179" height="52" fill="#00FF00"/>
</mask>
<g mask="url(#mask0_326_2)">
<path d="M-6.5 -3H182.5V54H-6.5V-3Z" fill="white"/>
<path d="M44 65L119 -10" stroke="#B3B3B3" stroke-opacity="0.25" stroke-width="0.5"/>
<path d="M176 64L251 -11" stroke="#B3B3B3" stroke-opacity="0.25" stroke-width="0.5"/>
<path d="M11 66L86 -9" stroke="#B3B3B3" stroke-opacity="0.25" stroke-width="0.5"/>
<path d="M143 65L218 -10" stroke="#B3B3B3" stroke-opacity="0.25" stroke-width="0.5"/>
<path d="M-22 66L53 -9" stroke="#B3B3B3" stroke-opacity="0.25" stroke-width="0.5"/>
<path d="M110 65L185 -10" stroke="#B3B3B3" stroke-opacity="0.25" stroke-width="0.5"/>
<path d="M-55 66L20 -9" stroke="#B3B3B3" stroke-opacity="0.25" stroke-width="0.5"/>
<path d="M77 65L152 -10" stroke="#B3B3B3" stroke-opacity="0.25" stroke-width="0.5"/>
<path d="M33 65L108 -10" stroke="#B3B3B3" stroke-opacity="0.25" stroke-width="0.5"/>
<path d="M165 64L240 -11" stroke="#B3B3B3" stroke-opacity="0.25" stroke-width="0.5"/>
<path d="M0 66L75 -9" stroke="#B3B3B3" stroke-opacity="0.25" stroke-width="0.5"/>
<path d="M132 65L207 -10" stroke="#B3B3B3" stroke-opacity="0.25" stroke-width="0.5"/>
<path d="M-33 66L42 -9" stroke="#B3B3B3" stroke-opacity="0.25" stroke-width="0.5"/>
<path d="M99 65L174 -10" stroke="#B3B3B3" stroke-opacity="0.25" stroke-width="0.5"/>
<path d="M-66 66L9 -9" stroke="#B3B3B3" stroke-opacity="0.25" stroke-width="0.5"/>
<path d="M66 65L141 -10" stroke="#B3B3B3" stroke-opacity="0.25" stroke-width="0.5"/>
<path d="M22 66L97 -9" stroke="#B3B3B3" stroke-opacity="0.25" stroke-width="0.5"/>
<path d="M154 65L229 -10" stroke="#B3B3B3" stroke-opacity="0.25" stroke-width="0.5"/>
<path d="M-11 67L64 -8" stroke="#B3B3B3" stroke-opacity="0.25" stroke-width="0.5"/>
<path d="M121 66L196 -9" stroke="#B3B3B3" stroke-opacity="0.25" stroke-width="0.5"/>
<path d="M-44 67L31 -8" stroke="#B3B3B3" stroke-opacity="0.25" stroke-width="0.5"/>
<path d="M88 66L163 -9" stroke="#B3B3B3" stroke-opacity="0.25" stroke-width="0.5"/>
<path d="M55 66L130 -9" stroke="#B3B3B3" stroke-opacity="0.25" stroke-width="0.5"/>
</g>
</svg>
